<?xml version="1.0" encoding="UTF-8"?>
<!DOCTYPE svg PUBLIC "-//W3C//DTD SVG 1.1//EN" "http://www.w3.org/Graphics/SVG/1.1/DTD/svg11.dtd">
<svg version="1.1" xmlns="http://www.w3.org/2000/svg" xmlns:xlink="http://www.w3.org/1999/xlink" x="0" y="0" width="3000" height="2000" viewBox="0, 0, 3000, 2000">
  <g id="Background">
    <rect x="0" y="0" width="3000" height="2000" fill="#FFFFFF"/>
    <g stroke-width="1px">
      <line x1="12" y1="0" x2="12" y2="2000" stroke="#AAAAAA" stroke-opacity="0.25"/>
      <line x1="24" y1="0" x2="24" y2="2000" stroke="#AAAAAA" stroke-opacity="0.25"/>
      <line x1="36" y1="0" x2="36" y2="2000" stroke="#AAAAAA" stroke-opacity="0.25"/>
      <line x1="48" y1="0" x2="48" y2="2000" stroke="#AAAAAA" stroke-opacity="0.25"/>
      <line x1="60" y1="0" x2="60" y2="2000" stroke="#AAAAAA" stroke-opacity="0.25"/>
      <line x1="72" y1="0" x2="72" y2="2000" stroke="#AAAAAA" stroke-opacity="0.5"/>
      <line x1="84" y1="0" x2="84" y2="2000" stroke="#AAAAAA" stroke-opacity="0.25"/>
      <line x1="96" y1="0" x2="96" y2="2000" stroke="#AAAAAA" stroke-opacity="0.25"/>
      <line x1="108" y1="0" x2="108" y2="2000" stroke="#AAAAAA" stroke-opacity="0.25"/>
      <line x1="120" y1="0" x2="120" y2="2000" stroke="#AAAAAA" stroke-opacity="0.25"/>
      <line x1="132" y1="0" x2="132" y2="2000" stroke="#AAAAAA" stroke-opacity="0.25"/>
      <line x1="144" y1="0" x2="144" y2="2000" stroke="#AAAAAA" stroke-opacity="0.5"/>
      <line x1="156" y1="0" x2="156" y2="2000" stroke="#AAAAAA" stroke-opacity="0.25"/>
      <line x1="168" y1="0" x2="168" y2="2000" stroke="#AAAAAA" stroke-opacity="0.25"/>
      <line x1="180" y1="0" x2="180" y2="2000" stroke="#AAAAAA" stroke-opacity="0.25"/>
      <line x1="192" y1="0" x2="192" y2="2000" stroke="#AAAAAA" stroke-opacity="0.25"/>
      <line x1="204" y1="0" x2="204" y2="2000" stroke="#AAAAAA" stroke-opacity="0.25"/>
      <line x1="216" y1="0" x2="216" y2="2000" stroke="#AAAAAA" stroke-opacity="0.5"/>
      <line x1="228" y1="0" x2="228" y2="2000" stroke="#AAAAAA" stroke-opacity="0.25"/>
      <line x1="240" y1="0" x2="240" y2="2000" stroke="#AAAAAA" stroke-opacity="0.25"/>
      <line x1="252" y1="0" x2="252" y2="2000" stroke="#AAAAAA" stroke-opacity="0.25"/>
      <line x1="264" y1="0" x2="264" y2="2000" stroke="#AAAAAA" stroke-opacity="0.25"/>
      <line x1="276" y1="0" x2="276" y2="2000" stroke="#AAAAAA" stroke-opacity="0.25"/>
      <line x1="288" y1="0" x2="288" y2="2000" stroke="#AAAAAA" stroke-opacity="0.5"/>
      <line x1="300" y1="0" x2="300" y2="2000" stroke="#AAAAAA" stroke-opacity="0.25"/>
      <line x1="312" y1="0" x2="312" y2="2000" stroke="#AAAAAA" stroke-opacity="0.25"/>
      <line x1="324" y1="0" x2="324" y2="2000" stroke="#AAAAAA" stroke-opacity="0.25"/>
      <line x1="336" y1="0" x2="336" y2="2000" stroke="#AAAAAA" stroke-opacity="0.25"/>
      <line x1="348" y1="0" x2="348" y2="2000" stroke="#AAAAAA" stroke-opacity="0.25"/>
      <line x1="360" y1="0" x2="360" y2="2000" stroke="#AAAAAA" stroke-opacity="0.5"/>
      <line x1="372" y1="0" x2="372" y2="2000" stroke="#AAAAAA" stroke-opacity="0.25"/>
      <line x1="384" y1="0" x2="384" y2="2000" stroke="#AAAAAA" stroke-opacity="0.25"/>
      <line x1="396" y1="0" x2="396" y2="2000" stroke="#AAAAAA" stroke-opacity="0.25"/>
      <line x1="408" y1="0" x2="408" y2="2000" stroke="#AAAAAA" stroke-opacity="0.25"/>
      <line x1="420" y1="0" x2="420" y2="2000" stroke="#AAAAAA" stroke-opacity="0.25"/>
      <line x1="432" y1="0" x2="432" y2="2000" stroke="#AAAAAA" stroke-opacity="0.5"/>
      <line x1="444" y1="0" x2="444" y2="2000" stroke="#AAAAAA" stroke-opacity="0.25"/>
      <line x1="456" y1="0" x2="456" y2="2000" stroke="#AAAAAA" stroke-opacity="0.25"/>
      <line x1="468" y1="0" x2="468" y2="2000" stroke="#AAAAAA" stroke-opacity="0.25"/>
      <line x1="480" y1="0" x2="480" y2="2000" stroke="#AAAAAA" stroke-opacity="0.25"/>
      <line x1="492" y1="0" x2="492" y2="2000" stroke="#AAAAAA" stroke-opacity="0.25"/>
      <line x1="504" y1="0" x2="504" y2="2000" stroke="#AAAAAA" stroke-opacity="0.5"/>
      <line x1="516" y1="0" x2="516" y2="2000" stroke="#AAAAAA" stroke-opacity="0.25"/>
      <line x1="528" y1="0" x2="528" y2="2000" stroke="#AAAAAA" stroke-opacity="0.25"/>
      <line x1="540" y1="0" x2="540" y2="2000" stroke="#AAAAAA" stroke-opacity="0.25"/>
      <line x1="552" y1="0" x2="552" y2="2000" stroke="#AAAAAA" stroke-opacity="0.25"/>
      <line x1="564" y1="0" x2="564" y2="2000" stroke="#AAAAAA" stroke-opacity="0.25"/>
      <line x1="576" y1="0" x2="576" y2="2000" stroke="#AAAAAA" stroke-opacity="0.5"/>
      <line x1="588" y1="0" x2="588" y2="2000" stroke="#AAAAAA" stroke-opacity="0.25"/>
      <line x1="600" y1="0" x2="600" y2="2000" stroke="#AAAAAA" stroke-opacity="0.25"/>
      <line x1="612" y1="0" x2="612" y2="2000" stroke="#AAAAAA" stroke-opacity="0.25"/>
      <line x1="624" y1="0" x2="624" y2="2000" stroke="#AAAAAA" stroke-opacity="0.25"/>
      <line x1="636" y1="0" x2="636" y2="2000" stroke="#AAAAAA" stroke-opacity="0.25"/>
      <line x1="648" y1="0" x2="648" y2="2000" stroke="#AAAAAA" stroke-opacity="0.5"/>
      <line x1="660" y1="0" x2="660" y2="2000" stroke="#AAAAAA" stroke-opacity="0.25"/>
      <line x1="672" y1="0" x2="672" y2="2000" stroke="#AAAAAA" stroke-opacity="0.25"/>
      <line x1="684" y1="0" x2="684" y2="2000" stroke="#AAAAAA" stroke-opacity="0.25"/>
      <line x1="696" y1="0" x2="696" y2="2000" stroke="#AAAAAA" stroke-opacity="0.25"/>
      <line x1="708" y1="0" x2="708" y2="2000" stroke="#AAAAAA" stroke-opacity="0.25"/>
      <line x1="720" y1="0" x2="720" y2="2000" stroke="#AAAAAA" stroke-opacity="0.5"/>
      <line x1="732" y1="0" x2="732" y2="2000" stroke="#AAAAAA" stroke-opacity="0.25"/>
      <line x1="744" y1="0" x2="744" y2="2000" stroke="#AAAAAA" stroke-opacity="0.25"/>
      <line x1="756" y1="0" x2="756" y2="2000" stroke="#AAAAAA" stroke-opacity="0.25"/>
      <line x1="768" y1="0" x2="768" y2="2000" stroke="#AAAAAA" stroke-opacity="0.25"/>
      <line x1="780" y1="0" x2="780" y2="2000" stroke="#AAAAAA" stroke-opacity="0.25"/>
      <line x1="792" y1="0" x2="792" y2="2000" stroke="#AAAAAA" stroke-opacity="0.5"/>
      <line x1="804" y1="0" x2="804" y2="2000" stroke="#AAAAAA" stroke-opacity="0.25"/>
      <line x1="816" y1="0" x2="816" y2="2000" stroke="#AAAAAA" stroke-opacity="0.25"/>
      <line x1="828" y1="0" x2="828" y2="2000" stroke="#AAAAAA" stroke-opacity="0.25"/>
      <line x1="840" y1="0" x2="840" y2="2000" stroke="#AAAAAA" stroke-opacity="0.25"/>
      <line x1="852" y1="0" x2="852" y2="2000" stroke="#AAAAAA" stroke-opacity="0.25"/>
      <line x1="864" y1="0" x2="864" y2="2000" stroke="#AAAAAA" stroke-opacity="0.5"/>
      <line x1="876" y1="0" x2="876" y2="2000" stroke="#AAAAAA" stroke-opacity="0.25"/>
      <line x1="888" y1="0" x2="888" y2="2000" stroke="#AAAAAA" stroke-opacity="0.25"/>
      <line x1="900" y1="0" x2="900" y2="2000" stroke="#AAAAAA" stroke-opacity="0.25"/>
      <line x1="912" y1="0" x2="912" y2="2000" stroke="#AAAAAA" stroke-opacity="0.25"/>
      <line x1="924" y1="0" x2="924" y2="2000" stroke="#AAAAAA" stroke-opacity="0.25"/>
      <line x1="936" y1="0" x2="936" y2="2000" stroke="#AAAAAA" stroke-opacity="0.5"/>
      <line x1="948" y1="0" x2="948" y2="2000" stroke="#AAAAAA" stroke-opacity="0.25"/>
      <line x1="960" y1="0" x2="960" y2="2000" stroke="#AAAAAA" stroke-opacity="0.25"/>
      <line x1="972" y1="0" x2="972" y2="2000" stroke="#AAAAAA" stroke-opacity="0.25"/>
      <line x1="984" y1="0" x2="984" y2="2000" stroke="#AAAAAA" stroke-opacity="0.25"/>
      <line x1="996" y1="0" x2="996" y2="2000" stroke="#AAAAAA" stroke-opacity="0.25"/>
      <line x1="1008" y1="0" x2="1008" y2="2000" stroke="#AAAAAA" stroke-opacity="0.5"/>
      <line x1="1020" y1="0" x2="1020" y2="2000" stroke="#AAAAAA" stroke-opacity="0.25"/>
      <line x1="1032" y1="0" x2="1032" y2="2000" stroke="#AAAAAA" stroke-opacity="0.25"/>
      <line x1="1044" y1="0" x2="1044" y2="2000" stroke="#AAAAAA" stroke-opacity="0.25"/>
      <line x1="1056" y1="0" x2="1056" y2="2000" stroke="#AAAAAA" stroke-opacity="0.25"/>
      <line x1="1068" y1="0" x2="1068" y2="2000" stroke="#AAAAAA" stroke-opacity="0.25"/>
      <line x1="1080" y1="0" x2="1080" y2="2000" stroke="#AAAAAA" stroke-opacity="0.5"/>
      <line x1="1092" y1="0" x2="1092" y2="2000" stroke="#AAAAAA" stroke-opacity="0.25"/>
      <line x1="1104" y1="0" x2="1104" y2="2000" stroke="#AAAAAA" stroke-opacity="0.25"/>
      <line x1="1116" y1="0" x2="1116" y2="2000" stroke="#AAAAAA" stroke-opacity="0.25"/>
      <line x1="1128" y1="0" x2="1128" y2="2000" stroke="#AAAAAA" stroke-opacity="0.25"/>
      <line x1="1140" y1="0" x2="1140" y2="2000" stroke="#AAAAAA" stroke-opacity="0.25"/>
      <line x1="1152" y1="0" x2="1152" y2="2000" stroke="#AAAAAA" stroke-opacity="0.5"/>
      <line x1="1164" y1="0" x2="1164" y2="2000" stroke="#AAAAAA" stroke-opacity="0.25"/>
      <line x1="1176" y1="0" x2="1176" y2="2000" stroke="#AAAAAA" stroke-opacity="0.25"/>
      <line x1="1188" y1="0" x2="1188" y2="2000" stroke="#AAAAAA" stroke-opacity="0.25"/>
      <line x1="1200" y1="0" x2="1200" y2="2000" stroke="#AAAAAA" stroke-opacity="0.25"/>
      <line x1="1212" y1="0" x2="1212" y2="2000" stroke="#AAAAAA" stroke-opacity="0.25"/>
      <line x1="1224" y1="0" x2="1224" y2="2000" stroke="#AAAAAA" stroke-opacity="0.5"/>
      <line x1="1236" y1="0" x2="1236" y2="2000" stroke="#AAAAAA" stroke-opacity="0.25"/>
      <line x1="1248" y1="0" x2="1248" y2="2000" stroke="#AAAAAA" stroke-opacity="0.25"/>
      <line x1="1260" y1="0" x2="1260" y2="2000" stroke="#AAAAAA" stroke-opacity="0.25"/>
      <line x1="1272" y1="0" x2="1272" y2="2000" stroke="#AAAAAA" stroke-opacity="0.25"/>
      <line x1="1284" y1="0" x2="1284" y2="2000" stroke="#AAAAAA" stroke-opacity="0.25"/>
      <line x1="1296" y1="0" x2="1296" y2="2000" stroke="#AAAAAA" stroke-opacity="0.5"/>
      <line x1="1308" y1="0" x2="1308" y2="2000" stroke="#AAAAAA" stroke-opacity="0.25"/>
      <line x1="1320" y1="0" x2="1320" y2="2000" stroke="#AAAAAA" stroke-opacity="0.25"/>
      <line x1="1332" y1="0" x2="1332" y2="2000" stroke="#AAAAAA" stroke-opacity="0.25"/>
      <line x1="1344" y1="0" x2="1344" y2="2000" stroke="#AAAAAA" stroke-opacity="0.25"/>
      <line x1="1356" y1="0" x2="1356" y2="2000" stroke="#AAAAAA" stroke-opacity="0.25"/>
      <line x1="1368" y1="0" x2="1368" y2="2000" stroke="#AAAAAA" stroke-opacity="0.5"/>
      <line x1="1380" y1="0" x2="1380" y2="2000" stroke="#AAAAAA" stroke-opacity="0.25"/>
      <line x1="1392" y1="0" x2="1392" y2="2000" stroke="#AAAAAA" stroke-opacity="0.25"/>
      <line x1="1404" y1="0" x2="1404" y2="2000" stroke="#AAAAAA" stroke-opacity="0.25"/>
      <line x1="1416" y1="0" x2="1416" y2="2000" stroke="#AAAAAA" stroke-opacity="0.25"/>
      <line x1="1428" y1="0" x2="1428" y2="2000" stroke="#AAAAAA" stroke-opacity="0.25"/>
      <line x1="1440" y1="0" x2="1440" y2="2000" stroke="#AAAAAA" stroke-opacity="0.5"/>
      <line x1="1452" y1="0" x2="1452" y2="2000" stroke="#AAAAAA" stroke-opacity="0.25"/>
      <line x1="1464" y1="0" x2="1464" y2="2000" stroke="#AAAAAA" stroke-opacity="0.25"/>
      <line x1="1476" y1="0" x2="1476" y2="2000" stroke="#AAAAAA" stroke-opacity="0.25"/>
      <line x1="1488" y1="0" x2="1488" y2="2000" stroke="#AAAAAA" stroke-opacity="0.25"/>
      <line x1="1500" y1="0" x2="1500" y2="2000" stroke="#AAAAAA" stroke-opacity="0.25"/>
      <line x1="1512" y1="0" x2="1512" y2="2000" stroke="#AAAAAA" stroke-opacity="0.5"/>
      <line x1="1524" y1="0" x2="1524" y2="2000" stroke="#AAAAAA" stroke-opacity="0.25"/>
      <line x1="1536" y1="0" x2="1536" y2="2000" stroke="#AAAAAA" stroke-opacity="0.25"/>
      <line x1="1548" y1="0" x2="1548" y2="2000" stroke="#AAAAAA" stroke-opacity="0.25"/>
      <line x1="1560" y1="0" x2="1560" y2="2000" stroke="#AAAAAA" stroke-opacity="0.25"/>
      <line x1="1572" y1="0" x2="1572" y2="2000" stroke="#AAAAAA" stroke-opacity="0.25"/>
      <line x1="1584" y1="0" x2="1584" y2="2000" stroke="#AAAAAA" stroke-opacity="0.5"/>
      <line x1="1596" y1="0" x2="1596" y2="2000" stroke="#AAAAAA" stroke-opacity="0.25"/>
      <line x1="1608" y1="0" x2="1608" y2="2000" stroke="#AAAAAA" stroke-opacity="0.25"/>
      <line x1="1620" y1="0" x2="1620" y2="2000" stroke="#AAAAAA" stroke-opacity="0.25"/>
      <line x1="1632" y1="0" x2="1632" y2="2000" stroke="#AAAAAA" stroke-opacity="0.25"/>
      <line x1="1644" y1="0" x2="1644" y2="2000" stroke="#AAAAAA" stroke-opacity="0.25"/>
      <line x1="1656" y1="0" x2="1656" y2="2000" stroke="#AAAAAA" stroke-opacity="0.5"/>
      <line x1="1668" y1="0" x2="1668" y2="2000" stroke="#AAAAAA" stroke-opacity="0.25"/>
      <line x1="1680" y1="0" x2="1680" y2="2000" stroke="#AAAAAA" stroke-opacity="0.25"/>
      <line x1="1692" y1="0" x2="1692" y2="2000" stroke="#AAAAAA" stroke-opacity="0.25"/>
      <line x1="1704" y1="0" x2="1704" y2="2000" stroke="#AAAAAA" stroke-opacity="0.25"/>
      <line x1="1716" y1="0" x2="1716" y2="2000" stroke="#AAAAAA" stroke-opacity="0.25"/>
      <line x1="1728" y1="0" x2="1728" y2="2000" stroke="#AAAAAA" stroke-opacity="0.5"/>
      <line x1="1740" y1="0" x2="1740" y2="2000" stroke="#AAAAAA" stroke-opacity="0.25"/>
      <line x1="1752" y1="0" x2="1752" y2="2000" stroke="#AAAAAA" stroke-opacity="0.25"/>
      <line x1="1764" y1="0" x2="1764" y2="2000" stroke="#AAAAAA" stroke-opacity="0.25"/>
      <line x1="1776" y1="0" x2="1776" y2="2000" stroke="#AAAAAA" stroke-opacity="0.25"/>
      <line x1="1788" y1="0" x2="1788" y2="2000" stroke="#AAAAAA" stroke-opacity="0.25"/>
      <line x1="1800" y1="0" x2="1800" y2="2000" stroke="#AAAAAA" stroke-opacity="0.5"/>
      <line x1="1812" y1="0" x2="1812" y2="2000" stroke="#AAAAAA" stroke-opacity="0.25"/>
      <line x1="1824" y1="0" x2="1824" y2="2000" stroke="#AAAAAA" stroke-opacity="0.25"/>
      <line x1="1836" y1="0" x2="1836" y2="2000" stroke="#AAAAAA" stroke-opacity="0.25"/>
      <line x1="1848" y1="0" x2="1848" y2="2000" stroke="#AAAAAA" stroke-opacity="0.25"/>
      <line x1="1860" y1="0" x2="1860" y2="2000" stroke="#AAAAAA" stroke-opacity="0.25"/>
      <line x1="1872" y1="0" x2="1872" y2="2000" stroke="#AAAAAA" stroke-opacity="0.5"/>
      <line x1="1884" y1="0" x2="1884" y2="2000" stroke="#AAAAAA" stroke-opacity="0.25"/>
      <line x1="1896" y1="0" x2="1896" y2="2000" stroke="#AAAAAA" stroke-opacity="0.25"/>
      <line x1="1908" y1="0" x2="1908" y2="2000" stroke="#AAAAAA" stroke-opacity="0.25"/>
      <line x1="1920" y1="0" x2="1920" y2="2000" stroke="#AAAAAA" stroke-opacity="0.25"/>
      <line x1="1932" y1="0" x2="1932" y2="2000" stroke="#AAAAAA" stroke-opacity="0.25"/>
      <line x1="1944" y1="0" x2="1944" y2="2000" stroke="#AAAAAA" stroke-opacity="0.5"/>
      <line x1="1956" y1="0" x2="1956" y2="2000" stroke="#AAAAAA" stroke-opacity="0.25"/>
      <line x1="1968" y1="0" x2="1968" y2="2000" stroke="#AAAAAA" stroke-opacity="0.25"/>
      <line x1="1980" y1="0" x2="1980" y2="2000" stroke="#AAAAAA" stroke-opacity="0.25"/>
      <line x1="1992" y1="0" x2="1992" y2="2000" stroke="#AAAAAA" stroke-opacity="0.25"/>
      <line x1="2004" y1="0" x2="2004" y2="2000" stroke="#AAAAAA" stroke-opacity="0.25"/>
      <line x1="2016" y1="0" x2="2016" y2="2000" stroke="#AAAAAA" stroke-opacity="0.5"/>
      <line x1="2028" y1="0" x2="2028" y2="2000" stroke="#AAAAAA" stroke-opacity="0.25"/>
      <line x1="2040" y1="0" x2="2040" y2="2000" stroke="#AAAAAA" stroke-opacity="0.25"/>
      <line x1="2052" y1="0" x2="2052" y2="2000" stroke="#AAAAAA" stroke-opacity="0.25"/>
      <line x1="2064" y1="0" x2="2064" y2="2000" stroke="#AAAAAA" stroke-opacity="0.25"/>
      <line x1="2076" y1="0" x2="2076" y2="2000" stroke="#AAAAAA" stroke-opacity="0.25"/>
      <line x1="2088" y1="0" x2="2088" y2="2000" stroke="#AAAAAA" stroke-opacity="0.5"/>
      <line x1="2100" y1="0" x2="2100" y2="2000" stroke="#AAAAAA" stroke-opacity="0.25"/>
      <line x1="2112" y1="0" x2="2112" y2="2000" stroke="#AAAAAA" stroke-opacity="0.25"/>
      <line x1="2124" y1="0" x2="2124" y2="2000" stroke="#AAAAAA" stroke-opacity="0.25"/>
      <line x1="2136" y1="0" x2="2136" y2="2000" stroke="#AAAAAA" stroke-opacity="0.25"/>
      <line x1="2148" y1="0" x2="2148" y2="2000" stroke="#AAAAAA" stroke-opacity="0.25"/>
      <line x1="2160" y1="0" x2="2160" y2="2000" stroke="#AAAAAA" stroke-opacity="0.5"/>
      <line x1="2172" y1="0" x2="2172" y2="2000" stroke="#AAAAAA" stroke-opacity="0.25"/>
      <line x1="2184" y1="0" x2="2184" y2="2000" stroke="#AAAAAA" stroke-opacity="0.25"/>
      <line x1="2196" y1="0" x2="2196" y2="2000" stroke="#AAAAAA" stroke-opacity="0.25"/>
      <line x1="2208" y1="0" x2="2208" y2="2000" stroke="#AAAAAA" stroke-opacity="0.25"/>
      <line x1="2220" y1="0" x2="2220" y2="2000" stroke="#AAAAAA" stroke-opacity="0.25"/>
      <line x1="2232" y1="0" x2="2232" y2="2000" stroke="#AAAAAA" stroke-opacity="0.5"/>
      <line x1="2244" y1="0" x2="2244" y2="2000" stroke="#AAAAAA" stroke-opacity="0.25"/>
      <line x1="2256" y1="0" x2="2256" y2="2000" stroke="#AAAAAA" stroke-opacity="0.25"/>
      <line x1="2268" y1="0" x2="2268" y2="2000" stroke="#AAAAAA" stroke-opacity="0.25"/>
      <line x1="2280" y1="0" x2="2280" y2="2000" stroke="#AAAAAA" stroke-opacity="0.25"/>
      <line x1="2292" y1="0" x2="2292" y2="2000" stroke="#AAAAAA" stroke-opacity="0.25"/>
      <line x1="2304" y1="0" x2="2304" y2="2000" stroke="#AAAAAA" stroke-opacity="0.5"/>
      <line x1="2316" y1="0" x2="2316" y2="2000" stroke="#AAAAAA" stroke-opacity="0.25"/>
      <line x1="2328" y1="0" x2="2328" y2="2000" stroke="#AAAAAA" stroke-opacity="0.25"/>
      <line x1="2340" y1="0" x2="2340" y2="2000" stroke="#AAAAAA" stroke-opacity="0.25"/>
      <line x1="2352" y1="0" x2="2352" y2="2000" stroke="#AAAAAA" stroke-opacity="0.25"/>
      <line x1="2364" y1="0" x2="2364" y2="2000" stroke="#AAAAAA" stroke-opacity="0.25"/>
      <line x1="2376" y1="0" x2="2376" y2="2000" stroke="#AAAAAA" stroke-opacity="0.5"/>
      <line x1="2388" y1="0" x2="2388" y2="2000" stroke="#AAAAAA" stroke-opacity="0.25"/>
      <line x1="2400" y1="0" x2="2400" y2="2000" stroke="#AAAAAA" stroke-opacity="0.25"/>
      <line x1="2412" y1="0" x2="2412" y2="2000" stroke="#AAAAAA" stroke-opacity="0.25"/>
      <line x1="2424" y1="0" x2="2424" y2="2000" stroke="#AAAAAA" stroke-opacity="0.25"/>
      <line x1="2436" y1="0" x2="2436" y2="2000" stroke="#AAAAAA" stroke-opacity="0.25"/>
      <line x1="2448" y1="0" x2="2448" y2="2000" stroke="#AAAAAA" stroke-opacity="0.5"/>
      <line x1="2460" y1="0" x2="2460" y2="2000" stroke="#AAAAAA" stroke-opacity="0.25"/>
      <line x1="2472" y1="0" x2="2472" y2="2000" stroke="#AAAAAA" stroke-opacity="0.25"/>
      <line x1="2484" y1="0" x2="2484" y2="2000" stroke="#AAAAAA" stroke-opacity="0.25"/>
      <line x1="2496" y1="0" x2="2496" y2="2000" stroke="#AAAAAA" stroke-opacity="0.25"/>
      <line x1="2508" y1="0" x2="2508" y2="2000" stroke="#AAAAAA" stroke-opacity="0.25"/>
      <line x1="2520" y1="0" x2="2520" y2="2000" stroke="#AAAAAA" stroke-opacity="0.5"/>
      <line x1="2532" y1="0" x2="2532" y2="2000" stroke="#AAAAAA" stroke-opacity="0.25"/>
      <line x1="2544" y1="0" x2="2544" y2="2000" stroke="#AAAAAA" stroke-opacity="0.25"/>
      <line x1="2556" y1="0" x2="2556" y2="2000" stroke="#AAAAAA" stroke-opacity="0.25"/>
      <line x1="2568" y1="0" x2="2568" y2="2000" stroke="#AAAAAA" stroke-opacity="0.25"/>
      <line x1="2580" y1="0" x2="2580" y2="2000" stroke="#AAAAAA" stroke-opacity="0.25"/>
      <line x1="2592" y1="0" x2="2592" y2="2000" stroke="#AAAAAA" stroke-opacity="0.5"/>
      <line x1="2604" y1="0" x2="2604" y2="2000" stroke="#AAAAAA" stroke-opacity="0.25"/>
      <line x1="2616" y1="0" x2="2616" y2="2000" stroke="#AAAAAA" stroke-opacity="0.25"/>
      <line x1="2628" y1="0" x2="2628" y2="2000" stroke="#AAAAAA" stroke-opacity="0.25"/>
      <line x1="2640" y1="0" x2="2640" y2="2000" stroke="#AAAAAA" stroke-opacity="0.25"/>
      <line x1="2652" y1="0" x2="2652" y2="2000" stroke="#AAAAAA" stroke-opacity="0.25"/>
      <line x1="2664" y1="0" x2="2664" y2="2000" stroke="#AAAAAA" stroke-opacity="0.5"/>
      <line x1="2676" y1="0" x2="2676" y2="2000" stroke="#AAAAAA" stroke-opacity="0.25"/>
      <line x1="2688" y1="0" x2="2688" y2="2000" stroke="#AAAAAA" stroke-opacity="0.25"/>
      <line x1="2700" y1="0" x2="2700" y2="2000" stroke="#AAAAAA" stroke-opacity="0.25"/>
      <line x1="2712" y1="0" x2="2712" y2="2000" stroke="#AAAAAA" stroke-opacity="0.25"/>
      <line x1="2724" y1="0" x2="2724" y2="2000" stroke="#AAAAAA" stroke-opacity="0.25"/>
      <line x1="2736" y1="0" x2="2736" y2="2000" stroke="#AAAAAA" stroke-opacity="0.5"/>
      <line x1="2748" y1="0" x2="2748" y2="2000" stroke="#AAAAAA" stroke-opacity="0.25"/>
      <line x1="2760" y1="0" x2="2760" y2="2000" stroke="#AAAAAA" stroke-opacity="0.25"/>
      <line x1="2772" y1="0" x2="2772" y2="2000" stroke="#AAAAAA" stroke-opacity="0.25"/>
      <line x1="2784" y1="0" x2="2784" y2="2000" stroke="#AAAAAA" stroke-opacity="0.25"/>
      <line x1="2796" y1="0" x2="2796" y2="2000" stroke="#AAAAAA" stroke-opacity="0.25"/>
      <line x1="2808" y1="0" x2="2808" y2="2000" stroke="#AAAAAA" stroke-opacity="0.5"/>
      <line x1="2820" y1="0" x2="2820" y2="2000" stroke="#AAAAAA" stroke-opacity="0.25"/>
      <line x1="2832" y1="0" x2="2832" y2="2000" stroke="#AAAAAA" stroke-opacity="0.25"/>
      <line x1="2844" y1="0" x2="2844" y2="2000" stroke="#AAAAAA" stroke-opacity="0.25"/>
      <line x1="2856" y1="0" x2="2856" y2="2000" stroke="#AAAAAA" stroke-opacity="0.25"/>
      <line x1="2868" y1="0" x2="2868" y2="2000" stroke="#AAAAAA" stroke-opacity="0.25"/>
      <line x1="2880" y1="0" x2="2880" y2="2000" stroke="#AAAAAA" stroke-opacity="0.5"/>
      <line x1="2892" y1="0" x2="2892" y2="2000" stroke="#AAAAAA" stroke-opacity="0.25"/>
      <line x1="2904" y1="0" x2="2904" y2="2000" stroke="#AAAAAA" stroke-opacity="0.25"/>
      <line x1="2916" y1="0" x2="2916" y2="2000" stroke="#AAAAAA" stroke-opacity="0.25"/>
      <line x1="2928" y1="0" x2="2928" y2="2000" stroke="#AAAAAA" stroke-opacity="0.25"/>
      <line x1="2940" y1="0" x2="2940" y2="2000" stroke="#AAAAAA" stroke-opacity="0.25"/>
      <line x1="2952" y1="0" x2="2952" y2="2000" stroke="#AAAAAA" stroke-opacity="0.5"/>
      <line x1="2964" y1="0" x2="2964" y2="2000" stroke="#AAAAAA" stroke-opacity="0.25"/>
      <line x1="2976" y1="0" x2="2976" y2="2000" stroke="#AAAAAA" stroke-opacity="0.25"/>
      <line x1="2988" y1="0" x2="2988" y2="2000" stroke="#AAAAAA" stroke-opacity="0.25"/>
      <line x1="3000" y1="0" x2="3000" y2="2000" stroke="#AAAAAA" stroke-opacity="0.25"/>
      <line x1="0" y1="12" x2="3000" y2="12" stroke="#AAAAAA" stroke-opacity="0.25"/>
      <line x1="0" y1="24" x2="3000" y2="24" stroke="#AAAAAA" stroke-opacity="0.25"/>
      <line x1="0" y1="36" x2="3000" y2="36" stroke="#AAAAAA" stroke-opacity="0.25"/>
      <line x1="0" y1="48" x2="3000" y2="48" stroke="#AAAAAA" stroke-opacity="0.25"/>
      <line x1="0" y1="60" x2="3000" y2="60" stroke="#AAAAAA" stroke-opacity="0.25"/>
      <line x1="0" y1="72" x2="3000" y2="72" stroke="#AAAAAA" stroke-opacity="0.5"/>
      <line x1="0" y1="84" x2="3000" y2="84" stroke="#AAAAAA" stroke-opacity="0.25"/>
      <line x1="0" y1="96" x2="3000" y2="96" stroke="#AAAAAA" stroke-opacity="0.25"/>
      <line x1="0" y1="108" x2="3000" y2="108" stroke="#AAAAAA" stroke-opacity="0.25"/>
      <line x1="0" y1="120" x2="3000" y2="120" stroke="#AAAAAA" stroke-opacity="0.25"/>
      <line x1="0" y1="132" x2="3000" y2="132" stroke="#AAAAAA" stroke-opacity="0.25"/>
      <line x1="0" y1="144" x2="3000" y2="144" stroke="#AAAAAA" stroke-opacity="0.5"/>
      <line x1="0" y1="156" x2="3000" y2="156" stroke="#AAAAAA" stroke-opacity="0.25"/>
      <line x1="0" y1="168" x2="3000" y2="168" stroke="#AAAAAA" stroke-opacity="0.25"/>
      <line x1="0" y1="180" x2="3000" y2="180" stroke="#AAAAAA" stroke-opacity="0.25"/>
      <line x1="0" y1="192" x2="3000" y2="192" stroke="#AAAAAA" stroke-opacity="0.25"/>
      <line x1="0" y1="204" x2="3000" y2="204" stroke="#AAAAAA" stroke-opacity="0.25"/>
      <line x1="0" y1="216" x2="3000" y2="216" stroke="#AAAAAA" stroke-opacity="0.5"/>
      <line x1="0" y1="228" x2="3000" y2="228" stroke="#AAAAAA" stroke-opacity="0.25"/>
      <line x1="0" y1="240" x2="3000" y2="240" stroke="#AAAAAA" stroke-opacity="0.25"/>
      <line x1="0" y1="252" x2="3000" y2="252" stroke="#AAAAAA" stroke-opacity="0.25"/>
      <line x1="0" y1="264" x2="3000" y2="264" stroke="#AAAAAA" stroke-opacity="0.25"/>
      <line x1="0" y1="276" x2="3000" y2="276" stroke="#AAAAAA" stroke-opacity="0.25"/>
      <line x1="0" y1="288" x2="3000" y2="288" stroke="#AAAAAA" stroke-opacity="0.5"/>
      <line x1="0" y1="300" x2="3000" y2="300" stroke="#AAAAAA" stroke-opacity="0.25"/>
      <line x1="0" y1="312" x2="3000" y2="312" stroke="#AAAAAA" stroke-opacity="0.25"/>
      <line x1="0" y1="324" x2="3000" y2="324" stroke="#AAAAAA" stroke-opacity="0.25"/>
      <line x1="0" y1="336" x2="3000" y2="336" stroke="#AAAAAA" stroke-opacity="0.25"/>
      <line x1="0" y1="348" x2="3000" y2="348" stroke="#AAAAAA" stroke-opacity="0.25"/>
      <line x1="0" y1="360" x2="3000" y2="360" stroke="#AAAAAA" stroke-opacity="0.5"/>
      <line x1="0" y1="372" x2="3000" y2="372" stroke="#AAAAAA" stroke-opacity="0.25"/>
      <line x1="0" y1="384" x2="3000" y2="384" stroke="#AAAAAA" stroke-opacity="0.25"/>
      <line x1="0" y1="396" x2="3000" y2="396" stroke="#AAAAAA" stroke-opacity="0.25"/>
      <line x1="0" y1="408" x2="3000" y2="408" stroke="#AAAAAA" stroke-opacity="0.25"/>
      <line x1="0" y1="420" x2="3000" y2="420" stroke="#AAAAAA" stroke-opacity="0.25"/>
      <line x1="0" y1="432" x2="3000" y2="432" stroke="#AAAAAA" stroke-opacity="0.5"/>
      <line x1="0" y1="444" x2="3000" y2="444" stroke="#AAAAAA" stroke-opacity="0.25"/>
      <line x1="0" y1="456" x2="3000" y2="456" stroke="#AAAAAA" stroke-opacity="0.25"/>
      <line x1="0" y1="468" x2="3000" y2="468" stroke="#AAAAAA" stroke-opacity="0.25"/>
      <line x1="0" y1="480" x2="3000" y2="480" stroke="#AAAAAA" stroke-opacity="0.25"/>
      <line x1="0" y1="492" x2="3000" y2="492" stroke="#AAAAAA" stroke-opacity="0.25"/>
      <line x1="0" y1="504" x2="3000" y2="504" stroke="#AAAAAA" stroke-opacity="0.5"/>
      <line x1="0" y1="516" x2="3000" y2="516" stroke="#AAAAAA" stroke-opacity="0.25"/>
      <line x1="0" y1="528" x2="3000" y2="528" stroke="#AAAAAA" stroke-opacity="0.25"/>
      <line x1="0" y1="540" x2="3000" y2="540" stroke="#AAAAAA" stroke-opacity="0.25"/>
      <line x1="0" y1="552" x2="3000" y2="552" stroke="#AAAAAA" stroke-opacity="0.25"/>
      <line x1="0" y1="564" x2="3000" y2="564" stroke="#AAAAAA" stroke-opacity="0.25"/>
      <line x1="0" y1="576" x2="3000" y2="576" stroke="#AAAAAA" stroke-opacity="0.5"/>
      <line x1="0" y1="588" x2="3000" y2="588" stroke="#AAAAAA" stroke-opacity="0.25"/>
      <line x1="0" y1="600" x2="3000" y2="600" stroke="#AAAAAA" stroke-opacity="0.25"/>
      <line x1="0" y1="612" x2="3000" y2="612" stroke="#AAAAAA" stroke-opacity="0.25"/>
      <line x1="0" y1="624" x2="3000" y2="624" stroke="#AAAAAA" stroke-opacity="0.25"/>
      <line x1="0" y1="636" x2="3000" y2="636" stroke="#AAAAAA" stroke-opacity="0.25"/>
      <line x1="0" y1="648" x2="3000" y2="648" stroke="#AAAAAA" stroke-opacity="0.5"/>
      <line x1="0" y1="660" x2="3000" y2="660" stroke="#AAAAAA" stroke-opacity="0.25"/>
      <line x1="0" y1="672" x2="3000" y2="672" stroke="#AAAAAA" stroke-opacity="0.25"/>
      <line x1="0" y1="684" x2="3000" y2="684" stroke="#AAAAAA" stroke-opacity="0.25"/>
      <line x1="0" y1="696" x2="3000" y2="696" stroke="#AAAAAA" stroke-opacity="0.25"/>
      <line x1="0" y1="708" x2="3000" y2="708" stroke="#AAAAAA" stroke-opacity="0.25"/>
      <line x1="0" y1="720" x2="3000" y2="720" stroke="#AAAAAA" stroke-opacity="0.5"/>
      <line x1="0" y1="732" x2="3000" y2="732" stroke="#AAAAAA" stroke-opacity="0.25"/>
      <line x1="0" y1="744" x2="3000" y2="744" stroke="#AAAAAA" stroke-opacity="0.25"/>
      <line x1="0" y1="756" x2="3000" y2="756" stroke="#AAAAAA" stroke-opacity="0.25"/>
      <line x1="0" y1="768" x2="3000" y2="768" stroke="#AAAAAA" stroke-opacity="0.25"/>
      <line x1="0" y1="780" x2="3000" y2="780" stroke="#AAAAAA" stroke-opacity="0.25"/>
      <line x1="0" y1="792" x2="3000" y2="792" stroke="#AAAAAA" stroke-opacity="0.5"/>
      <line x1="0" y1="804" x2="3000" y2="804" stroke="#AAAAAA" stroke-opacity="0.25"/>
      <line x1="0" y1="816" x2="3000" y2="816" stroke="#AAAAAA" stroke-opacity="0.25"/>
      <line x1="0" y1="828" x2="3000" y2="828" stroke="#AAAAAA" stroke-opacity="0.25"/>
      <line x1="0" y1="840" x2="3000" y2="840" stroke="#AAAAAA" stroke-opacity="0.25"/>
      <line x1="0" y1="852" x2="3000" y2="852" stroke="#AAAAAA" stroke-opacity="0.25"/>
      <line x1="0" y1="864" x2="3000" y2="864" stroke="#AAAAAA" stroke-opacity="0.5"/>
      <line x1="0" y1="876" x2="3000" y2="876" stroke="#AAAAAA" stroke-opacity="0.25"/>
      <line x1="0" y1="888" x2="3000" y2="888" stroke="#AAAAAA" stroke-opacity="0.25"/>
      <line x1="0" y1="900" x2="3000" y2="900" stroke="#AAAAAA" stroke-opacity="0.25"/>
      <line x1="0" y1="912" x2="3000" y2="912" stroke="#AAAAAA" stroke-opacity="0.25"/>
      <line x1="0" y1="924" x2="3000" y2="924" stroke="#AAAAAA" stroke-opacity="0.25"/>
      <line x1="0" y1="936" x2="3000" y2="936" stroke="#AAAAAA" stroke-opacity="0.5"/>
      <line x1="0" y1="948" x2="3000" y2="948" stroke="#AAAAAA" stroke-opacity="0.25"/>
      <line x1="0" y1="960" x2="3000" y2="960" stroke="#AAAAAA" stroke-opacity="0.25"/>
      <line x1="0" y1="972" x2="3000" y2="972" stroke="#AAAAAA" stroke-opacity="0.25"/>
      <line x1="0" y1="984" x2="3000" y2="984" stroke="#AAAAAA" stroke-opacity="0.25"/>
      <line x1="0" y1="996" x2="3000" y2="996" stroke="#AAAAAA" stroke-opacity="0.25"/>
      <line x1="0" y1="1008" x2="3000" y2="1008" stroke="#AAAAAA" stroke-opacity="0.5"/>
      <line x1="0" y1="1020" x2="3000" y2="1020" stroke="#AAAAAA" stroke-opacity="0.25"/>
      <line x1="0" y1="1032" x2="3000" y2="1032" stroke="#AAAAAA" stroke-opacity="0.25"/>
      <line x1="0" y1="1044" x2="3000" y2="1044" stroke="#AAAAAA" stroke-opacity="0.25"/>
      <line x1="0" y1="1056" x2="3000" y2="1056" stroke="#AAAAAA" stroke-opacity="0.25"/>
      <line x1="0" y1="1068" x2="3000" y2="1068" stroke="#AAAAAA" stroke-opacity="0.25"/>
      <line x1="0" y1="1080" x2="3000" y2="1080" stroke="#AAAAAA" stroke-opacity="0.5"/>
      <line x1="0" y1="1092" x2="3000" y2="1092" stroke="#AAAAAA" stroke-opacity="0.25"/>
      <line x1="0" y1="1104" x2="3000" y2="1104" stroke="#AAAAAA" stroke-opacity="0.25"/>
      <line x1="0" y1="1116" x2="3000" y2="1116" stroke="#AAAAAA" stroke-opacity="0.25"/>
      <line x1="0" y1="1128" x2="3000" y2="1128" stroke="#AAAAAA" stroke-opacity="0.25"/>
      <line x1="0" y1="1140" x2="3000" y2="1140" stroke="#AAAAAA" stroke-opacity="0.25"/>
      <line x1="0" y1="1152" x2="3000" y2="1152" stroke="#AAAAAA" stroke-opacity="0.5"/>
      <line x1="0" y1="1164" x2="3000" y2="1164" stroke="#AAAAAA" stroke-opacity="0.25"/>
      <line x1="0" y1="1176" x2="3000" y2="1176" stroke="#AAAAAA" stroke-opacity="0.25"/>
      <line x1="0" y1="1188" x2="3000" y2="1188" stroke="#AAAAAA" stroke-opacity="0.25"/>
      <line x1="0" y1="1200" x2="3000" y2="1200" stroke="#AAAAAA" stroke-opacity="0.25"/>
      <line x1="0" y1="1212" x2="3000" y2="1212" stroke="#AAAAAA" stroke-opacity="0.25"/>
      <line x1="0" y1="1224" x2="3000" y2="1224" stroke="#AAAAAA" stroke-opacity="0.5"/>
      <line x1="0" y1="1236" x2="3000" y2="1236" stroke="#AAAAAA" stroke-opacity="0.25"/>
      <line x1="0" y1="1248" x2="3000" y2="1248" stroke="#AAAAAA" stroke-opacity="0.25"/>
      <line x1="0" y1="1260" x2="3000" y2="1260" stroke="#AAAAAA" stroke-opacity="0.25"/>
      <line x1="0" y1="1272" x2="3000" y2="1272" stroke="#AAAAAA" stroke-opacity="0.25"/>
      <line x1="0" y1="1284" x2="3000" y2="1284" stroke="#AAAAAA" stroke-opacity="0.25"/>
      <line x1="0" y1="1296" x2="3000" y2="1296" stroke="#AAAAAA" stroke-opacity="0.5"/>
      <line x1="0" y1="1308" x2="3000" y2="1308" stroke="#AAAAAA" stroke-opacity="0.25"/>
      <line x1="0" y1="1320" x2="3000" y2="1320" stroke="#AAAAAA" stroke-opacity="0.25"/>
      <line x1="0" y1="1332" x2="3000" y2="1332" stroke="#AAAAAA" stroke-opacity="0.25"/>
      <line x1="0" y1="1344" x2="3000" y2="1344" stroke="#AAAAAA" stroke-opacity="0.25"/>
      <line x1="0" y1="1356" x2="3000" y2="1356" stroke="#AAAAAA" stroke-opacity="0.25"/>
      <line x1="0" y1="1368" x2="3000" y2="1368" stroke="#AAAAAA" stroke-opacity="0.5"/>
      <line x1="0" y1="1380" x2="3000" y2="1380" stroke="#AAAAAA" stroke-opacity="0.25"/>
      <line x1="0" y1="1392" x2="3000" y2="1392" stroke="#AAAAAA" stroke-opacity="0.25"/>
      <line x1="0" y1="1404" x2="3000" y2="1404" stroke="#AAAAAA" stroke-opacity="0.25"/>
      <line x1="0" y1="1416" x2="3000" y2="1416" stroke="#AAAAAA" stroke-opacity="0.25"/>
      <line x1="0" y1="1428" x2="3000" y2="1428" stroke="#AAAAAA" stroke-opacity="0.25"/>
      <line x1="0" y1="1440" x2="3000" y2="1440" stroke="#AAAAAA" stroke-opacity="0.5"/>
      <line x1="0" y1="1452" x2="3000" y2="1452" stroke="#AAAAAA" stroke-opacity="0.25"/>
      <line x1="0" y1="1464" x2="3000" y2="1464" stroke="#AAAAAA" stroke-opacity="0.25"/>
      <line x1="0" y1="1476" x2="3000" y2="1476" stroke="#AAAAAA" stroke-opacity="0.25"/>
      <line x1="0" y1="1488" x2="3000" y2="1488" stroke="#AAAAAA" stroke-opacity="0.25"/>
      <line x1="0" y1="1500" x2="3000" y2="1500" stroke="#AAAAAA" stroke-opacity="0.25"/>
      <line x1="0" y1="1512" x2="3000" y2="1512" stroke="#AAAAAA" stroke-opacity="0.5"/>
      <line x1="0" y1="1524" x2="3000" y2="1524" stroke="#AAAAAA" stroke-opacity="0.25"/>
      <line x1="0" y1="1536" x2="3000" y2="1536" stroke="#AAAAAA" stroke-opacity="0.25"/>
      <line x1="0" y1="1548" x2="3000" y2="1548" stroke="#AAAAAA" stroke-opacity="0.25"/>
      <line x1="0" y1="1560" x2="3000" y2="1560" stroke="#AAAAAA" stroke-opacity="0.25"/>
      <line x1="0" y1="1572" x2="3000" y2="1572" stroke="#AAAAAA" stroke-opacity="0.25"/>
      <line x1="0" y1="1584" x2="3000" y2="1584" stroke="#AAAAAA" stroke-opacity="0.5"/>
      <line x1="0" y1="1596" x2="3000" y2="1596" stroke="#AAAAAA" stroke-opacity="0.25"/>
      <line x1="0" y1="1608" x2="3000" y2="1608" stroke="#AAAAAA" stroke-opacity="0.25"/>
      <line x1="0" y1="1620" x2="3000" y2="1620" stroke="#AAAAAA" stroke-opacity="0.25"/>
      <line x1="0" y1="1632" x2="3000" y2="1632" stroke="#AAAAAA" stroke-opacity="0.25"/>
      <line x1="0" y1="1644" x2="3000" y2="1644" stroke="#AAAAAA" stroke-opacity="0.25"/>
      <line x1="0" y1="1656" x2="3000" y2="1656" stroke="#AAAAAA" stroke-opacity="0.5"/>
      <line x1="0" y1="1668" x2="3000" y2="1668" stroke="#AAAAAA" stroke-opacity="0.25"/>
      <line x1="0" y1="1680" x2="3000" y2="1680" stroke="#AAAAAA" stroke-opacity="0.25"/>
      <line x1="0" y1="1692" x2="3000" y2="1692" stroke="#AAAAAA" stroke-opacity="0.25"/>
      <line x1="0" y1="1704" x2="3000" y2="1704" stroke="#AAAAAA" stroke-opacity="0.25"/>
      <line x1="0" y1="1716" x2="3000" y2="1716" stroke="#AAAAAA" stroke-opacity="0.25"/>
      <line x1="0" y1="1728" x2="3000" y2="1728" stroke="#AAAAAA" stroke-opacity="0.5"/>
      <line x1="0" y1="1740" x2="3000" y2="1740" stroke="#AAAAAA" stroke-opacity="0.25"/>
      <line x1="0" y1="1752" x2="3000" y2="1752" stroke="#AAAAAA" stroke-opacity="0.25"/>
      <line x1="0" y1="1764" x2="3000" y2="1764" stroke="#AAAAAA" stroke-opacity="0.25"/>
      <line x1="0" y1="1776" x2="3000" y2="1776" stroke="#AAAAAA" stroke-opacity="0.25"/>
      <line x1="0" y1="1788" x2="3000" y2="1788" stroke="#AAAAAA" stroke-opacity="0.25"/>
      <line x1="0" y1="1800" x2="3000" y2="1800" stroke="#AAAAAA" stroke-opacity="0.5"/>
      <line x1="0" y1="1812" x2="3000" y2="1812" stroke="#AAAAAA" stroke-opacity="0.25"/>
      <line x1="0" y1="1824" x2="3000" y2="1824" stroke="#AAAAAA" stroke-opacity="0.25"/>
      <line x1="0" y1="1836" x2="3000" y2="1836" stroke="#AAAAAA" stroke-opacity="0.25"/>
      <line x1="0" y1="1848" x2="3000" y2="1848" stroke="#AAAAAA" stroke-opacity="0.25"/>
      <line x1="0" y1="1860" x2="3000" y2="1860" stroke="#AAAAAA" stroke-opacity="0.25"/>
      <line x1="0" y1="1872" x2="3000" y2="1872" stroke="#AAAAAA" stroke-opacity="0.5"/>
      <line x1="0" y1="1884" x2="3000" y2="1884" stroke="#AAAAAA" stroke-opacity="0.25"/>
      <line x1="0" y1="1896" x2="3000" y2="1896" stroke="#AAAAAA" stroke-opacity="0.25"/>
      <line x1="0" y1="1908" x2="3000" y2="1908" stroke="#AAAAAA" stroke-opacity="0.25"/>
      <line x1="0" y1="1920" x2="3000" y2="1920" stroke="#AAAAAA" stroke-opacity="0.25"/>
      <line x1="0" y1="1932" x2="3000" y2="1932" stroke="#AAAAAA" stroke-opacity="0.25"/>
      <line x1="0" y1="1944" x2="3000" y2="1944" stroke="#AAAAAA" stroke-opacity="0.5"/>
      <line x1="0" y1="1956" x2="3000" y2="1956" stroke="#AAAAAA" stroke-opacity="0.25"/>
      <line x1="0" y1="1968" x2="3000" y2="1968" stroke="#AAAAAA" stroke-opacity="0.25"/>
      <line x1="0" y1="1980" x2="3000" y2="1980" stroke="#AAAAAA" stroke-opacity="0.25"/>
      <line x1="0" y1="1992" x2="3000" y2="1992" stroke="#AAAAAA" stroke-opacity="0.25"/>
    </g>
  </g>
  <g id="Layer_1">
    <path d="M688.903,638.688 C687.822,639.982 689.317,643.99 689.317,643.99 C689.317,643.99 683.338,647.993 682.259,649.792 C681.18,651.59 695.717,651.526 696.854,650.091 C697.99,648.655 696.996,637.249 696.996,637.249 C696.996,637.249 689.983,637.393 688.903,638.688 z" fill="#EDCD4D" id="Left_leg"/>
    <path d="M741.235,638.761 C742.316,640.056 740.821,644.063 740.821,644.063 C740.821,644.063 746.799,648.066 747.879,649.865 C748.958,651.664 734.421,651.6 733.284,650.164 C732.148,648.729 733.142,637.322 733.142,637.322 C733.142,637.322 740.155,637.466 741.235,638.761 z" fill="#EDCD4D" id="Right_leg"/>
    <path d="M636.398,558.906 C636.398,558.906 642.207,519.18 660.435,504.424 C678.664,489.667 699.831,479.868 715.734,480.51 C732.363,481.182 755.965,492.914 767.973,504.424 C779.452,515.426 787.05,534.555 789.185,543.524 C789.613,545.322 791.948,559.03 792.007,559.143 C792.897,560.868 778.668,542.51 779.684,545.416 C782.994,554.878 785.796,563.214 785.796,572.613 C785.796,576.186 786.097,580.986 783.711,586.422 C782.044,590.22 779.851,595.417 777.451,597.836 C775.372,599.931 774.021,583.452 773.094,579.949 C772.023,575.902 770.476,590.688 766.741,603.518 C763.645,614.151 744.322,642.236 737.957,641.946 C731.591,641.657 720.611,628.201 717.124,615.327 C714.348,605.076 714.111,605.906 714.111,605.906 C714.111,605.906 713.755,605.208 709.599,615.439 C706.102,624.047 705.813,633.286 695.808,640.587 C685.803,647.888 664.19,609.041 662.798,601.245 C661.174,592.149 660.306,576.895 660.306,576.895 C660.306,576.895 655.301,584.095 654.781,593.633 C654.266,603.058 648.309,592.05 647.269,588.587 C646.23,585.124 645.586,581.931 645.157,578.728 C644.728,575.526 644.732,556.28 647.393,550.515 C650.865,542.992 636.398,558.906 636.398,558.906 z" fill="#77D559" id="Body"/>
    <g id="Right_eye">
      <path d="M738.357,552.219 C731.453,552.219 725.857,546.622 725.857,539.719 C725.857,532.815 731.453,527.219 738.357,527.219 C745.261,527.219 750.857,532.815 750.857,539.719 C750.857,546.622 745.261,552.219 738.357,552.219 z" fill="#000000"/>
      <path d="M739.106,548.342 C734.964,548.342 731.606,544.984 731.606,540.842 C731.606,536.7 734.964,533.342 739.106,533.342 C743.248,533.342 746.606,536.7 746.606,540.842 C746.606,544.984 743.248,548.342 739.106,548.342 z" fill="#FFFFFF"/>
      <path d="M733.596,534.526 C732.492,534.526 731.596,533.631 731.596,532.526 C731.596,531.422 732.492,530.526 733.596,530.526 C734.701,530.526 735.596,531.422 735.596,532.526 C735.596,533.631 734.701,534.526 733.596,534.526 z" fill="#FFFFFF"/>
    </g>
    <g id="Left_eye">
      <path d="M691.947,551.899 C685.044,551.899 679.447,546.303 679.447,539.399 C679.447,532.496 685.044,526.899 691.947,526.899 C698.851,526.899 704.447,532.496 704.447,539.399 C704.447,546.303 698.851,551.899 691.947,551.899 z" fill="#000000"/>
      <path d="M692.375,548.076 C688.233,548.076 684.875,544.718 684.875,540.576 C684.875,536.434 688.233,533.076 692.375,533.076 C696.517,533.076 699.875,536.434 699.875,540.576 C699.875,544.718 696.517,548.076 692.375,548.076 z" fill="#FFFFFF"/>
      <path d="M687.082,534.243 C685.978,534.243 685.082,533.348 685.082,532.243 C685.082,531.139 685.978,530.243 687.082,530.243 C688.187,530.243 689.082,531.139 689.082,532.243 C689.082,533.348 688.187,534.243 687.082,534.243 z" fill="#FFFFFF"/>
    </g>
    <g id="Mouth">
      <path d="M715.677,590.94 C705.541,590.94 687.19,572.384 697.324,572.587 C715.745,572.958 705.408,572.758 715.544,572.758 C725.68,572.758 715.644,572.958 734.029,572.587 C744.163,572.383 725.813,590.94 715.677,590.94 z" fill="#EC8888"/>
      <path d="M705.466,587.034 C705.466,587.034 708.405,588.919 710.688,589.887 C713.112,590.915 713.438,590.972 716.104,590.958 C718.885,590.657 720.705,589.854 720.705,589.854 C721.681,589.479 725.68,587.406 725.752,587.071 C725.992,585.954 705.466,587.034 705.466,587.034 z" fill="#E79C9C"/>
      <path d="M734.818,572.586 C733.953,572.531 696.102,572.623 696.102,572.623 C696.102,572.623 694.559,573.006 694.505,573.838 C694.45,574.671 695.16,574.916 695.16,574.916 L695.692,573.838 L695.736,575.455 L696.333,573.797 L696.504,575.088 L697.25,573.632 L697.365,575.604 L698.19,573.677 L699.464,575.604 L700.648,573.561 L701.784,576.369 L703.901,573.561 L704.843,575.073 L704.852,575.086 C704.852,575.086 705.469,573.742 705.469,573.742 L706,576.039 L707.133,573.915 L710.339,577.726 L712.171,573.613 L715.384,580.25 L718.84,574.216 L720.375,576.397 L721.405,574.015 L722.321,576.276 L722.749,573.913 L723.36,576.195 L723.849,573.669 C723.849,573.669 724.228,578.003 724.31,578.309 C724.391,578.614 725.601,573.608 725.601,573.608 L727.048,575.849 L728.535,573.567 L730.103,575.747 L731.754,573.689 L731.54,577.352 L733.383,573.954 L734.721,576.396 L735.779,573.681 L736.302,575.21 C736.302,575.21 737.005,573.871 736.659,573.389 C736.344,572.949 735.682,572.641 734.818,572.586 z" fill="#FFFFFF"/>
    </g>
    <g id="Shading">
      <path d="M717.124,615.327 C717.124,615.327 723.368,638.261 737.559,642.019 C737.559,642.019 741.525,641.571 744.929,637.465 C746.468,635.608 748.692,633.316 751.026,630.501 C760.024,619.646 765.232,607.104 766.741,603.518 C768.293,599.831 771.568,580.63 772.477,579.661 C773.386,578.691 774.654,591.579 775.183,593.038 C775.56,594.08 775.721,595.318 775.955,596.252 C776.188,597.185 776.783,598.051 777.07,598.062 C777.469,598.078 778.504,596.701 778.965,595.996 C779.979,594.444 781.582,592.318 783,588.647 C783,588.647 783,588.647 783,588.647 C783,588.647 783,588.647 783,588.647 C783.801,586.574 785.141,583.12 785.74,579.042 C786.201,575.901 786.083,572.337 785.808,569.073 C785.176,561.588 782.117,548.759 779.684,545.416 C777.689,542.675 773.279,558.143 767.168,569.098 C760.164,581.654 754.869,588.572 740.69,599.334 C729.741,607.645 717.124,615.327 717.124,615.327 z" fill="#45B61F"/>
      <path d="M779.636,544.702 C779.636,544.702 791.373,558.103 792.007,559.143 C792.64,560.183 789.703,544.326 788.989,541.849 C788.274,539.372 784.3,528.633 782.302,524.341 C780.337,520.117 778.636,517.836 775.968,514.025 C773.301,510.215 772.733,509.373 771.153,507.508 C769.573,505.644 775.573,513.035 771.891,520.997 C768.209,528.958 771.095,533.138 762.437,541.996 C753.778,550.853 769.005,551.152 762.437,562.497 C755.868,573.843 751.85,589.153 756.764,585.089 C763.262,579.715 779.636,544.702 779.636,544.702 z" fill="#60C93E"/>
      <path d="M641.652,537.161 C640.737,538.436 636.961,554.349 636.398,558.906 C636.338,559.394 637.016,558.461 637.016,558.461 C637.016,558.461 639.911,555.138 642.023,553 C642.62,552.397 639.673,551.285 639.742,548.986 C639.892,543.962 642.279,536.286 641.652,537.161 z" fill="#45B61F"/>
      <path d="M645.078,577.774 C645.078,577.774 646.054,586.862 647.901,590.526 C649.726,594.146 650.13,594.779 651.562,596.312 C652.651,597.477 653.079,597.486 653.43,597.398 C653.93,597.273 654.469,597.484 654.766,593.734 C655.063,589.975 655.367,589.008 655.625,587.883 C655.876,586.789 647.46,588.906 645.078,577.774 z" fill="#45B61F"/>
    </g>
  </g>
</svg>
